<?xml version="1.0" standalone="no"?>
<svg xmlns:xlink="http://www.w3.org/1999/xlink" id="wave" style="transform:rotate(0deg); transition: 0.3s" viewBox="0 0 1440 460" version="1.1" xmlns="http://www.w3.org/2000/svg"><defs><linearGradient id="sw-gradient-0" x1="0" x2="0" y1="1" y2="0"><stop stop-color="rgba(166, 174, 221, 1)" offset="0%"/><stop stop-color="rgba(0, 34, 232, 1)" offset="100%"/></linearGradient></defs><path style="transform:translate(0, 0px); opacity:1" fill="url(#sw-gradient-0)" d="M0,276L60,299C120,322,240,368,360,368C480,368,600,322,720,276C840,230,960,184,1080,199.3C1200,215,1320,291,1440,268.3C1560,245,1680,123,1800,99.7C1920,77,2040,153,2160,207C2280,261,2400,291,2520,299C2640,307,2760,291,2880,299C3000,307,3120,337,3240,322C3360,307,3480,245,3600,237.7C3720,230,3840,276,3960,253C4080,230,4200,138,4320,99.7C4440,61,4560,77,4680,138C4800,199,4920,307,5040,329.7C5160,353,5280,291,5400,245.3C5520,199,5640,169,5760,161C5880,153,6000,169,6120,145.7C6240,123,6360,61,6480,84.3C6600,107,6720,215,6840,214.7C6960,215,7080,107,7200,76.7C7320,46,7440,92,7560,161C7680,230,7800,322,7920,345C8040,368,8160,322,8280,322C8400,322,8520,368,8580,391L8640,414L8640,460L8580,460C8520,460,8400,460,8280,460C8160,460,8040,460,7920,460C7800,460,7680,460,7560,460C7440,460,7320,460,7200,460C7080,460,6960,460,6840,460C6720,460,6600,460,6480,460C6360,460,6240,460,6120,460C6000,460,5880,460,5760,460C5640,460,5520,460,5400,460C5280,460,5160,460,5040,460C4920,460,4800,460,4680,460C4560,460,4440,460,4320,460C4200,460,4080,460,3960,460C3840,460,3720,460,3600,460C3480,460,3360,460,3240,460C3120,460,3000,460,2880,460C2760,460,2640,460,2520,460C2400,460,2280,460,2160,460C2040,460,1920,460,1800,460C1680,460,1560,460,1440,460C1320,460,1200,460,1080,460C960,460,840,460,720,460C600,460,480,460,360,460C240,460,120,460,60,460L0,460Z"/></svg>